# xmcd
#
# Track frame offsets:
#	182
#	22245
#	44910
#	65745
#	86245
#	105952
#	127657
#	145670
#
# Disc length: 2172 seconds
#
# Revision: 1
# Processed by: cddbd v1.4PL0 Copyright (c) Steve Scherf et al.
# Submitted via: EasyCDDAExtractor 5.0.6
#
DISCID=6f087a08
DTITLE=La Misma Nota
DYEAR=1995
DGENRE=Salsa
TTITLE0=Es Que La Quiero
TTITLE1=Perdi Mi Juramento
TTITLE2=Dejame Quedar
TTITLE3=Aquella Mañana
TTITLE4=Te Canto Hoy
TTITLE5=La Unica
TTITLE6=Y Si Es Amor
TTITLE7=Tu No Vales Nada
EXTD=
EXTT0=
EXTT1=
EXTT2=
EXTT3=
EXTT4=
EXTT5=
EXTT6=
EXTT7=
PLAYORDER=
